<svg xmlns="http://www.w3.org/2000/svg" viewBox="0 0 332.9 106.4"><defs><style>.cls-1{fill:#fff;}.cls-2{fill:#f7b600;}.cls-3{fill:#1a1f71;}.cls-4{fill:#ff5f00;}.cls-5{fill:#eb001b;}.cls-6{fill:#f79e1b;}</style></defs><title>mcvs_acc_hrz</title><g id="Layer_2" data-name="Layer 2"><g id="Layer_1-2" data-name="Layer 1"><rect width="332.9" height="106.4"/><rect class="cls-1" x="171" y="2.6" width="159.2" height="101.1"/><rect class="cls-2" x="173.6" y="87.3" width="153.9" height="13.8"/><rect class="cls-3" x="173.6" y="5.3" width="153.9" height="13.8"/><path class="cls-3" d="M235.2,34.3,219.3,72.2H208.9l-7.8-30.3c-.5-1.9-.9-2.5-2.3-3.3a39.42,39.42,0,0,0-9.7-3.2l.2-1.1H206a4.57,4.57,0,0,1,4.5,3.9l4.1,21.9,10.2-25.8Zm40.7,25.5c0-10-13.8-10.6-13.7-15,0-1.4,1.3-2.8,4.2-3.2a18.69,18.69,0,0,1,9.7,1.7l1.7-8a25.58,25.58,0,0,0-9.2-1.7c-9.7,0-16.5,5.2-16.6,12.5-.1,5.5,4.9,8.5,8.6,10.3s5.1,3.1,5.1,4.7c0,2.5-3.1,3.7-5.9,3.7a20.12,20.12,0,0,1-10.1-2.4l-1.8,8.3a27.86,27.86,0,0,0,10.9,2c10.3.1,17-5,17.1-12.9m25.6,12.4h9.1l-7.9-37.9h-8.4a4.47,4.47,0,0,0-4.2,2.8L275.3,72.2h10.3l2-5.7h12.6Zm-11-13.4,5.2-14.2,3,14.2ZM249.2,34.3l-8.1,37.9h-9.8l8.1-37.9Z"/><path id="_Compound_Path_" data-name="&lt;Compound Path&gt;" class="cls-1" d="M46.9,97.5v-6a3.49,3.49,0,0,0-3.7-3.8,3.94,3.94,0,0,0-3.4,1.7,3.5,3.5,0,0,0-3.2-1.7,3.4,3.4,0,0,0-2.9,1.4V87.9H31.8v9.6h1.9V92a2.24,2.24,0,0,1,2.4-2.5c1.4,0,2.2.9,2.2,2.5v5.5h1.9V92a2.24,2.24,0,0,1,2.4-2.5c1.4,0,2.2.9,2.2,2.5v5.5ZM78.1,88H74.6V85.1H72.7V88h-2v1.7h2v4.5c0,2.2.8,3.5,3.2,3.5a5.59,5.59,0,0,0,2.6-.7l-.6-1.7a3.29,3.29,0,0,1-1.8.5,1.4,1.4,0,0,1-1.5-1.6V89.6h3.5V88Zm17.8-.3a3,3,0,0,0-2.6,1.4V87.9H91.4v9.6h1.9V92.1c0-1.6.8-2.6,2.1-2.6a5.85,5.85,0,0,1,1.3.2l.6-1.8a6.75,6.75,0,0,0-1.4-.2ZM69,88.7a6.86,6.86,0,0,0-3.9-1c-2.4,0-3.9,1.1-3.9,3,0,1.6,1.1,2.5,3.2,2.8l1,.1c1.1.2,1.8.6,1.8,1.1,0,.7-.8,1.2-2.3,1.2a5.27,5.27,0,0,1-3.2-1l-1,1.5a7.24,7.24,0,0,0,4.1,1.2c2.8,0,4.3-1.3,4.3-3.1s-1.2-2.5-3.3-2.8l-1-.1c-.9-.1-1.7-.4-1.7-1s.8-1.2,1.9-1.2a7.21,7.21,0,0,1,3,.8Zm29.1,4a4.72,4.72,0,0,0,5,5,5,5,0,0,0,3.4-1.1l-1-1.5a4,4,0,0,1-2.5.9,3.21,3.21,0,0,1,0-6.4,4,4,0,0,1,2.5.9l1-1.5a5,5,0,0,0-3.4-1.1,4.48,4.48,0,0,0-5,4.8Zm-13.5-5c-2.8,0-4.7,2-4.7,5a4.7,4.7,0,0,0,4.9,5,6.12,6.12,0,0,0,3.9-1.3l-1-1.4a4.78,4.78,0,0,1-2.8,1A2.81,2.81,0,0,1,82,93.5h7.1v-.8c0-3-1.8-5-4.5-5Zm0,1.8a2.39,2.39,0,0,1,2.5,2.4H81.9a2.57,2.57,0,0,1,2.7-2.4ZM58.7,92.7V87.9H56.8v1.2a3.68,3.68,0,0,0-3.1-1.4,5,5,0,0,0,0,10,3.68,3.68,0,0,0,3.1-1.4v1.2h1.9Zm-7.8,0a3,3,0,1,1,3,3.2,2.94,2.94,0,0,1-3-3.2Zm73.9-5a3,3,0,0,0-2.6,1.4V87.9h-1.9v9.6h1.9V92.1c0-1.6.8-2.6,2.1-2.6a5.85,5.85,0,0,1,1.3.2l.6-1.8a6.75,6.75,0,0,0-1.4-.2Zm15.4,8.4a.6.6,0,0,1,.4.1c.1,0,.2.1.3.2s.2.2.2.3.1.2.1.4a.6.6,0,0,1-.1.4c-.1.1-.1.2-.2.3s-.2.2-.3.2-.2.1-.4.1a.6.6,0,0,1-.4-.1c-.1-.1-.2-.1-.3-.2s-.2-.2-.2-.3-.1-.2-.1-.4a.6.6,0,0,1,.1-.4c.1-.1.1-.2.2-.3s.2-.2.3-.2S140.1,96.1,140.2,96.1Zm0,1.7a.37.37,0,0,0,.3-.1.22.22,0,0,0,.2-.2l.2-.2c0-.1.1-.2.1-.3a.37.37,0,0,0-.1-.3.22.22,0,0,0-.2-.2l-.2-.2c-.1,0-.2-.1-.3-.1a.37.37,0,0,0-.3.1.22.22,0,0,0-.2.2l-.2.2c0,.1-.1.2-.1.3a.37.37,0,0,0,.1.3.22.22,0,0,0,.2.2l.2.2A.37.37,0,0,0,140.2,97.8Zm.1-1.1a.37.37,0,0,1,.3.1c.1.1.1.1.1.2s0,.1-.1.2a.35.35,0,0,1-.2.1l.3.3h-.3l-.3-.3H140v.3h-.2v-.9Zm-.2.1V97h.3v-.2h-.3Zm-22.7-4.1V87.9h-1.9v1.2a3.68,3.68,0,0,0-3.1-1.4,5,5,0,0,0,0,10,3.68,3.68,0,0,0,3.1-1.4v1.2h1.9Zm-7.7,0a3,3,0,1,1,3,3.2c-1.9.1-3-1.4-3-3.2Zm27.1,0V84.1h-1.9v5a3.68,3.68,0,0,0-3.1-1.4,5,5,0,0,0,0,10,3.68,3.68,0,0,0,3.1-1.4v1.2h1.9Zm-7.8,0a3,3,0,1,1,3,3.2A2.94,2.94,0,0,1,129,92.7Z"/><g id="_Group_" data-name="&lt;Group&gt;"><rect class="cls-4" x="66.8" y="15.1" width="34.7" height="56.6"/><path id="_Path_" data-name="&lt;Path&gt;" class="cls-5" d="M70.4,43.4A36.1,36.1,0,0,1,84.1,15.1,36,36,0,1,0,61.9,79.4a35.78,35.78,0,0,0,22.2-7.7A36.1,36.1,0,0,1,70.4,43.4Z"/><path class="cls-6" d="M138.9,65.7V64.5h.5v-.2h-1.2v.2h.5v1.2Zm2.4,0V64.3h-.4l-.4,1-.4-1h-.4v1.4h.3V64.6l.4.9h.3l.4-.9v1.1Z"/><path class="cls-6" d="M142.4,43.4A36,36,0,0,1,84.2,71.7a36.08,36.08,0,0,0,0-56.6,36,36,0,0,1,58.2,28.3Z"/></g></g></g></svg>