<?xml version="1.0" encoding="UTF-8" standalone="no"?>
<!-- Created with Inkscape (http://www.inkscape.org/) -->

<svg
   xmlns:dc="http://purl.org/dc/elements/1.1/"
   xmlns:cc="http://creativecommons.org/ns#"
   xmlns:rdf="http://www.w3.org/1999/02/22-rdf-syntax-ns#"
   xmlns:svg="http://www.w3.org/2000/svg"
   xmlns="http://www.w3.org/2000/svg"
   xmlns:sodipodi="http://sodipodi.sourceforge.net/DTD/sodipodi-0.dtd"
   xmlns:inkscape="http://www.inkscape.org/namespaces/inkscape"
   version="1.1"
   id="svg815"
   xml:space="preserve"
   width="463.82587"
   height="130.03799"
   viewBox="0 0 463.82586 130.03799"
   sodipodi:docname="mir_ru.svg"
   inkscape:version="0.92.5 (2060ec1f9f, 2020-04-08)"><metadata
     id="metadata821"><rdf:RDF><cc:Work
         rdf:about=""><dc:format>image/svg+xml</dc:format><dc:type
           rdf:resource="http://purl.org/dc/dcmitype/StillImage" /><dc:title></dc:title></cc:Work></rdf:RDF></metadata><defs
     id="defs819"><clipPath
       clipPathUnits="userSpaceOnUse"
       id="clipPath831"><path
         d="M 0,270.667 H 595.276 V 0 H 0 Z"
         id="path829"
         inkscape:connector-curvature="0" /></clipPath><clipPath
       clipPathUnits="userSpaceOnUse"
       id="clipPath843"><path
         d="m 380.847,201.727 c 0.136,-2.611 0.511,-5.157 1.091,-7.624 v 0 c 0.136,-0.547 0.26,-1.104 0.419,-1.644 v 0 c 0.065,-0.224 0.124,-0.444 0.189,-0.668 v 0 c 5.572,-17.667 22.083,-30.486 41.596,-30.486 v 0 h 57.617 c 0.354,1.975 0.574,3.994 0.574,6.073 v 0 c 0,10.025 -4.325,19.018 -11.171,25.3 v 0 c -6.119,5.602 -14.239,9.049 -23.184,9.049 v 0 z"
         id="path841"
         inkscape:connector-curvature="0" /></clipPath><linearGradient
       x1="0"
       y1="0"
       x2="1"
       y2="0"
       gradientUnits="userSpaceOnUse"
       gradientTransform="matrix(101.48654,0,0,-101.48654,380.8468,181.51596)"
       spreadMethod="pad"
       id="linearGradient853"><stop
         style="stop-opacity:1;stop-color:#50a9df"
         offset="0"
         id="stop849" /><stop
         style="stop-opacity:1;stop-color:#2d3e91"
         offset="1"
         id="stop851" /></linearGradient><clipPath
       clipPathUnits="userSpaceOnUse"
       id="clipPath863"><path
         d="M 0,270.667 H 595.276 V 0 H 0 Z"
         id="path861"
         inkscape:connector-curvature="0" /></clipPath></defs><sodipodi:namedview
     pagecolor="#ffffff"
     bordercolor="#666666"
     borderopacity="1"
     objecttolerance="10"
     gridtolerance="10"
     guidetolerance="10"
     inkscape:pageopacity="0"
     inkscape:pageshadow="2"
     inkscape:window-width="2560"
     inkscape:window-height="1371"
     id="namedview817"
     showgrid="false"
     fit-margin-top="0"
     fit-margin-left="0"
     fit-margin-right="0"
     fit-margin-bottom="0"
     inkscape:zoom="1.2460606"
     inkscape:cx="171.39966"
     inkscape:cy="-184.26724"
     inkscape:window-x="1920"
     inkscape:window-y="0"
     inkscape:window-maximized="1"
     inkscape:current-layer="g823" /><g
     id="g823"
     inkscape:groupmode="layer"
     inkscape:label="logo_MIR_eng_Rus"
     transform="matrix(1.3333333,0,0,-1.3333333,-179.2848,268.97119)"><g
       id="g825"><g
         id="g827"
         clip-path="url(#clipPath831)"><g
           id="g833"
           transform="translate(382.2915,155.3986)"><path
             d="m 0,0 v -51.183 h 31.203 v 28.82 h 31.404 c 16.403,0 30.396,9.303 35.804,22.363 z"
             style="fill:#006644;fill-opacity:1;fill-rule:nonzero;stroke:none"
             id="path835"
             inkscape:connector-curvature="0" /></g></g></g><g
       id="g837"><g
         id="g839"
         clip-path="url(#clipPath843)"><g
           id="g845"><g
             id="g847"><path
               d="m 380.847,201.727 c 0.136,-2.611 0.511,-5.157 1.091,-7.624 v 0 c 0.136,-0.547 0.26,-1.104 0.419,-1.644 v 0 c 0.065,-0.224 0.124,-0.444 0.189,-0.668 v 0 c 5.572,-17.667 22.083,-30.486 41.596,-30.486 v 0 h 57.617 c 0.354,1.975 0.574,3.994 0.574,6.073 v 0 c 0,10.025 -4.325,19.018 -11.171,25.3 v 0 c -6.119,5.602 -14.239,9.049 -23.184,9.049 v 0 z"
               style="fill:url(#linearGradient853);stroke:none"
               id="path855"
               inkscape:connector-curvature="0" /></g></g></g></g><g
       id="g857"><g
         id="g859"
         clip-path="url(#clipPath863)"><g
           id="g865"
           transform="translate(326.9873,191.4259)"><path
             d="m 0,0 -21.845,-47.33 h -2.217 v 57.631 h -31.032 v -97.527 h 26.335 c 6.917,0 13.203,4.022 16.102,10.305 l 21.841,47.323 h 2.22 V -87.226 H 42.436 V 10.301 H 16.099 C 9.181,10.301 2.896,6.279 0,0"
             style="fill:#006644;fill-opacity:1;fill-rule:nonzero;stroke:none"
             id="path867"
             inkscape:connector-curvature="0" /></g><g
           id="g869"
           transform="translate(182.4936,188.9094)"><path
             d="m 0,0 12.927,-44.808 h 2.214 L 28.068,0 c 2.192,7.59 9.138,12.819 17.038,12.819 H 76.101 V -84.707 H 45.069 v 57.627 h -2.22 L 25.116,-84.707 H 2.952 l -17.733,57.627 h -2.217 V -84.707 H -48.03 v 97.526 h 30.992 C -9.141,12.819 -2.192,7.59 0,0"
             style="fill:#006644;fill-opacity:1;fill-rule:nonzero;stroke:none"
             id="path871"
             inkscape:connector-curvature="0" /></g></g></g></g></svg>