<?xml version="1.0" encoding="UTF-8" standalone="no"?>
<!-- Created with Inkscape (http://www.inkscape.org/) -->

<svg
   xmlns:dc="http://purl.org/dc/elements/1.1/"
   xmlns:cc="http://creativecommons.org/ns#"
   xmlns:rdf="http://www.w3.org/1999/02/22-rdf-syntax-ns#"
   xmlns:svg="http://www.w3.org/2000/svg"
   xmlns="http://www.w3.org/2000/svg"
   xmlns:sodipodi="http://sodipodi.sourceforge.net/DTD/sodipodi-0.dtd"
   xmlns:inkscape="http://www.inkscape.org/namespaces/inkscape"
   width="99.801895mm"
   height="49.807304mm"
   viewBox="0 0 99.801895 49.807304"
   version="1.1"
   id="svg1610"
   inkscape:version="0.92.5 (2060ec1f9f, 2020-04-08)"
   sodipodi:docname="sbp.svg">
  <defs
     id="defs1604" />
  <sodipodi:namedview
     id="base"
     pagecolor="#ffffff"
     bordercolor="#666666"
     borderopacity="1.0"
     inkscape:pageopacity="0.0"
     inkscape:pageshadow="2"
     inkscape:zoom="0.35"
     inkscape:cx="-371.24003"
     inkscape:cy="-234.62863"
     inkscape:document-units="mm"
     inkscape:current-layer="layer1"
     showgrid="false"
     fit-margin-top="0"
     fit-margin-left="0"
     fit-margin-right="0"
     fit-margin-bottom="0"
     inkscape:window-width="2560"
     inkscape:window-height="1371"
     inkscape:window-x="1920"
     inkscape:window-y="0"
     inkscape:window-maximized="1" />
  <metadata
     id="metadata1607">
    <rdf:RDF>
      <cc:Work
         rdf:about="">
        <dc:format>image/svg+xml</dc:format>
        <dc:type
           rdf:resource="http://purl.org/dc/dcmitype/StillImage" />
        <dc:title></dc:title>
      </cc:Work>
    </rdf:RDF>
  </metadata>
  <g
     inkscape:label="Layer 1"
     inkscape:groupmode="layer"
     id="layer1"
     transform="translate(-59.670352,-36.947203)">
    <path
       inkscape:connector-curvature="0"
       id="path2188"
       style="fill:#141630;fill-opacity:1;fill-rule:nonzero;stroke:none;stroke-width:0.03527778"
       d="m 148.34917,50.214842 v 12.41672 h -4.38009 v -8.709378 h -4.21746 v 8.709378 h -4.38009 v -12.41672" />
    <path
       inkscape:connector-curvature="0"
       id="path2190"
       style="fill:#141630;fill-opacity:1;fill-rule:nonzero;stroke:none;stroke-width:0.03527778"
       d="m 128.79893,57.129992 c 0,-1.622778 -1.04387,-2.572103 -2.54953,-2.572103 -1.55257,0 -2.59468,0.973314 -2.59468,2.595387 0,1.528939 1.04211,2.642658 2.59468,2.642658 1.62243,0 2.54953,-1.205442 2.54953,-2.665942 m 4.49544,0 c 0,3.615267 -3.01237,6.002162 -7.06825,6.002162 -4.19418,0 -7.25347,-2.525889 -7.25347,-8.250062 0,-4.912431 3.13761,-8.960909 7.78016,-9.03852 2.03342,0 6.40433,-0.09596 6.40433,-0.09596 l -1.9685,3.61315 c 0,0 -3.48121,0.0056 -3.94229,0.0056 -2.00342,0 -3.82411,1.506714 -4.07987,3.569406 1.06644,-0.996597 2.47967,-1.575858 4.19558,-1.575858 3.70805,0 5.93231,2.271183 5.93231,5.770033" />
    <path
       inkscape:connector-curvature="0"
       id="path2192"
       style="fill:#141630;fill-opacity:1;fill-rule:nonzero;stroke:none;stroke-width:0.03527778"
       d="m 115.50061,58.879417 c 0,0 -1.05939,0.595842 -2.63913,0.710495 -1.81857,0.05115 -3.4357,-1.067506 -3.4357,-3.0607 0,-1.944864 1.43016,-3.058584 3.38984,-3.058584 1.20262,0 2.79471,0.81527 2.79471,0.81527 0,0 1.16346,-2.088445 1.76706,-3.130903 -1.10349,-0.819503 -2.57669,-1.267531 -4.28554,-1.267531 -4.318,0 -7.66128,2.751667 -7.66128,6.617759 0,3.91407 3.14255,6.603295 7.66128,6.52145 1.26435,-0.04727 3.00637,-0.479072 4.06752,-1.144764" />
    <path
       inkscape:connector-curvature="0"
       id="path2194"
       style="fill:#5454ae;fill-opacity:1;fill-rule:nonzero;stroke:none;stroke-width:0.03527778"
       d="m 59.670352,47.789142 6.052608,10.7823 v 6.573662 l -6.04273,10.761487 z" />
    <path
       inkscape:connector-curvature="0"
       id="path2196"
       style="fill:#dd1059;fill-opacity:1;fill-rule:nonzero;stroke:none;stroke-width:0.03527778"
       d="m 82.903239,54.647495 5.66914,-3.464278 11.600391,-0.0088 -17.269531,10.548056 z" />
    <path
       inkscape:connector-curvature="0"
       id="path2198"
       style="fill:#f9ad1c;fill-opacity:1;fill-rule:nonzero;stroke:none;stroke-width:0.03527778"
       d="m 82.871842,47.7267 0.0314,14.272684 -6.064603,-3.713692 V 36.947574 Z" />
    <path
       inkscape:connector-curvature="0"
       id="path2200"
       style="fill:#f36228;fill-opacity:1;fill-rule:nonzero;stroke:none;stroke-width:0.03527778"
       d="m 100.17277,51.174398 -11.600391,0.0088 -5.700537,-3.456164 -6.033559,-10.779831 z" />
    <path
       inkscape:connector-curvature="0"
       id="path2202"
       style="fill:#58c034;fill-opacity:1;fill-rule:nonzero;stroke:none;stroke-width:0.03527778"
       d="m 82.903239,75.966916 v -6.926087 l -6.063897,-3.643489 7.05e-4,21.357168 z" />
    <path
       inkscape:connector-curvature="0"
       id="path2204"
       style="fill:#3f88d0;fill-opacity:1;fill-rule:nonzero;stroke:none;stroke-width:0.03527778"
       d="M 88.558267,72.534388 65.72296,58.57109 59.670352,47.788789 100.14949,72.520629 Z" />
    <path
       inkscape:connector-curvature="0"
       id="path2206"
       style="fill:#27843b;fill-opacity:1;fill-rule:nonzero;stroke:none;stroke-width:0.03527778"
       d="m 76.840047,86.754508 6.063192,-10.787592 5.654676,-3.432528 11.591575,-0.01341 z" />
    <path
       inkscape:connector-curvature="0"
       id="path2208"
       style="fill:#8d3ca2;fill-opacity:1;fill-rule:nonzero;stroke:none;stroke-width:0.03527778"
       d="M 59.68023,75.906238 76.886261,65.396987 71.100705,61.859332 65.723313,65.145104 Z" />
    <path
       inkscape:connector-curvature="0"
       id="path2210"
       style="fill:#141630;fill-opacity:1;fill-rule:nonzero;stroke:none;stroke-width:0.03527778"
       d="m 109.7207,71.02979 c -0.13476,0.172156 -0.30938,0.302331 -0.52281,0.390525 -0.21449,0.08855 -0.44239,0.132645 -0.68439,0.132645 -0.25118,0 -0.47908,-0.0381 -0.68369,-0.115006 -0.20461,-0.07691 -0.38135,-0.187325 -0.53022,-0.331258 -0.14887,-0.144286 -0.26388,-0.3175 -0.34502,-0.519994 -0.0818,-0.202142 -0.12241,-0.426509 -0.12241,-0.673101 0,-0.227894 0.0395,-0.44203 0.11853,-0.642055 0.0794,-0.199672 0.1898,-0.373239 0.33161,-0.519642 0.14182,-0.146755 0.30904,-0.262819 0.50236,-0.348897 0.19297,-0.08608 0.40569,-0.129117 0.63817,-0.129117 0.25153,0 0.4826,0.0314 0.69427,0.09419 0.21167,0.06279 0.39194,0.168628 0.54081,0.3175 l -0.25824,0.439561 c -0.1344,-0.121003 -0.27798,-0.205669 -0.42897,-0.254705 -0.15135,-0.04868 -0.30833,-0.07338 -0.47096,-0.07338 -0.1397,0 -0.27446,0.02716 -0.40429,0.08043 -0.13088,0.05362 -0.24588,0.129117 -0.34572,0.226836 -0.10019,0.09737 -0.17921,0.215195 -0.23742,0.352425 -0.0582,0.137231 -0.0871,0.289278 -0.0871,0.456847 0,0.172156 0.0303,0.326673 0.0907,0.463903 0.0603,0.137231 0.14182,0.254706 0.24448,0.352425 0.10195,0.09772 0.22189,0.172156 0.35912,0.223309 0.13723,0.05115 0.28258,0.07655 0.43604,0.07655 0.1905,0 0.36159,-0.03704 0.51258,-0.111477 0.15134,-0.07444 0.28046,-0.172156 0.38735,-0.293159" />
    <path
       inkscape:connector-curvature="0"
       id="path2212"
       style="fill:#141630;fill-opacity:1;fill-rule:nonzero;stroke:none;stroke-width:0.03527778"
       d="M 110.44637,71.483463 V 68.34374 h 0.55809 v 2.337506 l 1.81434,-2.337506 h 0.55809 v 3.139723 H 112.8188 V 69.14631 l -1.81434,2.337153" />
    <path
       inkscape:connector-curvature="0"
       id="path2214"
       style="fill:#141630;fill-opacity:1;fill-rule:nonzero;stroke:none;stroke-width:0.03527778"
       d="m 117.06765,71.02979 c -0.13511,0.172156 -0.30974,0.302331 -0.52317,0.390525 -0.21449,0.08855 -0.44238,0.132645 -0.68439,0.132645 -0.25117,0 -0.47872,-0.0381 -0.68333,-0.115006 -0.20496,-0.07691 -0.38135,-0.187325 -0.53057,-0.331258 -0.14852,-0.144286 -0.26388,-0.3175 -0.34502,-0.519994 -0.0815,-0.202142 -0.12241,-0.426509 -0.12241,-0.673101 0,-0.227894 0.0399,-0.44203 0.11853,-0.642055 0.0794,-0.199672 0.19015,-0.373239 0.33196,-0.519642 0.14111,-0.146755 0.30939,-0.262819 0.50201,-0.348897 0.19332,-0.08608 0.40569,-0.129117 0.63817,-0.129117 0.25153,0 0.4826,0.0314 0.69427,0.09419 0.21166,0.06279 0.39193,0.168628 0.54116,0.3175 l -0.25824,0.439561 c -0.13546,-0.121003 -0.27798,-0.205669 -0.42897,-0.254705 -0.15134,-0.04868 -0.30833,-0.07338 -0.47131,-0.07338 -0.13935,0 -0.27411,0.02716 -0.40429,0.08043 -0.13053,0.05362 -0.24588,0.129117 -0.34537,0.226836 -0.10019,0.09737 -0.17956,0.215195 -0.23742,0.352425 -0.0582,0.137231 -0.0871,0.289278 -0.0871,0.456847 0,0.172156 0.0303,0.326673 0.0907,0.463903 0.0607,0.137231 0.14182,0.254706 0.24412,0.352425 0.10196,0.09772 0.22225,0.172156 0.35948,0.223309 0.13723,0.05115 0.28223,0.07655 0.43604,0.07655 0.19014,0 0.36159,-0.03704 0.51258,-0.111477 0.15135,-0.07444 0.27976,-0.172156 0.387,-0.293159" />
    <path
       inkscape:connector-curvature="0"
       id="path2216"
       style="fill:#141630;fill-opacity:1;fill-rule:nonzero;stroke:none;stroke-width:0.03527778"
       d="m 117.3534,68.34374 h 2.86033 v 0.558448 h -1.15112 v 2.581275 h -0.55809 v -2.581275 h -1.15112" />
    <path
       inkscape:connector-curvature="0"
       id="path2218"
       style="fill:#141630;fill-opacity:1;fill-rule:nonzero;stroke:none;stroke-width:0.03527778"
       d="m 122.09756,68.79706 c -0.28787,0 -0.51894,0.07937 -0.69074,0.237419 -0.17216,0.158045 -0.27446,0.358422 -0.30692,0.600428 h 1.90465 c -0.0141,-0.261056 -0.10019,-0.465667 -0.25823,-0.614186 -0.15805,-0.148872 -0.37465,-0.223661 -0.64876,-0.223661 m 1.27,2.344561 c -0.15381,0.139347 -0.33655,0.242711 -0.54787,0.310092 -0.21201,0.06738 -0.42192,0.101247 -0.63147,0.101247 -0.25576,0 -0.48718,-0.03845 -0.69426,-0.114653 -0.20708,-0.0769 -0.38383,-0.187678 -0.53023,-0.331964 -0.1464,-0.14358 -0.25929,-0.3175 -0.33831,-0.519641 -0.079,-0.202142 -0.11854,-0.426509 -0.11854,-0.672748 0,-0.228247 0.036,-0.442383 0.10795,-0.642055 0.0723,-0.200378 0.17675,-0.373592 0.31398,-0.519642 0.13723,-0.146756 0.30585,-0.26282 0.50588,-0.348897 0.20002,-0.08643 0.43039,-0.129117 0.69074,-0.129117 0.20002,0 0.38982,0.03457 0.56832,0.104422 0.17921,0.06985 0.33408,0.16757 0.46426,0.292806 0.13017,0.125589 0.23389,0.277283 0.31044,0.453672 0.0769,0.177095 0.11536,0.371828 0.11536,0.585964 0,0.144286 -0.0116,0.269522 -0.0353,0.376767 h -2.4137 c 0.0233,0.297744 0.13476,0.529166 0.33478,0.693914 0.20003,0.165805 0.45368,0.248355 0.76059,0.248355 0.20461,0 0.39088,-0.0314 0.55845,-0.09454 0.16757,-0.06279 0.30163,-0.140406 0.40393,-0.233539" />
    <path
       inkscape:connector-curvature="0"
       id="path2220"
       style="fill:#141630;fill-opacity:1;fill-rule:nonzero;stroke:none;stroke-width:0.03527778"
       d="m 124.34369,68.34374 h 0.50906 l 1.20721,1.556103 1.14441,-1.556103 h 0.4953 v 3.139723 h -0.55809 v -2.28847 l -1.08797,1.458031 h -0.0215 l -1.12995,-1.458031 v 2.28847 h -0.55845" />
    <path
       inkscape:connector-curvature="0"
       id="path2222"
       style="fill:#141630;fill-opacity:1;fill-rule:nonzero;stroke:none;stroke-width:0.03527778"
       d="m 129.64665,71.02979 c 0.20461,0 0.37077,-0.0441 0.49883,-0.132291 0.1277,-0.08855 0.23107,-0.179211 0.31044,-0.272345 v -0.39758 c -0.19544,-0.1397 -0.43039,-0.20955 -0.70449,-0.20955 -0.0836,0 -0.16652,0.01058 -0.24765,0.03175 -0.0819,0.02081 -0.15382,0.05221 -0.21661,0.09384 -0.0624,0.04198 -0.11289,0.0956 -0.14993,0.160513 -0.0374,0.06526 -0.0561,0.14217 -0.0561,0.230364 0,0.148873 0.049,0.268464 0.14675,0.359128 0.0977,0.09102 0.23707,0.136172 0.41875,0.136172 m -0.91405,-2.469797 c 0.13935,-0.08819 0.29916,-0.158044 0.48013,-0.209197 0.18063,-0.05115 0.3683,-0.07691 0.56304,-0.07691 0.4452,0 0.75706,0.111478 0.93556,0.335139 0.17851,0.223309 0.26776,0.539397 0.26776,0.94862 v 1.925814 h -0.52317 v -0.404636 c -0.0931,0.12065 -0.21872,0.226483 -0.37676,0.3175 -0.1584,0.09031 -0.36725,0.135819 -0.62795,0.135819 -0.28822,0 -0.5207,-0.08467 -0.69744,-0.254706 -0.17709,-0.169686 -0.26529,-0.408163 -0.26529,-0.71508 0,-0.158045 0.0303,-0.299861 0.0907,-0.42545 0.0607,-0.125589 0.14288,-0.230364 0.24765,-0.313972 0.10478,-0.08396 0.23037,-0.147814 0.37677,-0.191912 0.1464,-0.0441 0.30339,-0.06632 0.47096,-0.06632 0.121,0 0.25471,0.01411 0.40111,0.04198 0.14675,0.02787 0.27305,0.08114 0.38029,0.160161 0,-0.143933 -0.008,-0.277636 -0.0243,-0.401108 -0.0162,-0.12312 -0.049,-0.227542 -0.0977,-0.31362 -0.0487,-0.08643 -0.12135,-0.153811 -0.21625,-0.202494 -0.0956,-0.04904 -0.21978,-0.07338 -0.37359,-0.07338 -0.19509,0 -0.35666,0.02223 -0.48472,0.06632 -0.12806,0.0441 -0.25435,0.09878 -0.38029,0.164042" />
    <path
       inkscape:connector-curvature="0"
       id="path2224"
       style="fill:#141630;fill-opacity:1;fill-rule:nonzero;stroke:none;stroke-width:0.03527778"
       d="m 133.86023,69.704404 c 0,0.204259 0.0257,0.388409 0.0769,0.551039 0.0512,0.162984 0.12312,0.301272 0.21626,0.414867 0.0931,0.1143 0.20461,0.202847 0.33478,0.265289 0.13018,0.06279 0.27235,0.09384 0.42545,0.09384 0.15381,0 0.29316,-0.02752 0.4191,-0.08326 0.12524,-0.05574 0.23354,-0.131586 0.32421,-0.226836 0.091,-0.0956 0.16157,-0.206728 0.21272,-0.334786 0.0512,-0.128059 0.0769,-0.2667 0.0769,-0.41522 0,-0.306916 -0.0861,-0.561622 -0.25824,-0.763764 -0.17215,-0.202494 -0.42121,-0.303388 -0.74683,-0.303388 -0.14852,0 -0.28328,0.02328 -0.40428,0.06914 -0.121,0.04657 -0.22825,0.107597 -0.32103,0.182033 -0.0931,0.07373 -0.17004,0.15875 -0.23036,0.254353 -0.0603,0.09525 -0.10231,0.194381 -0.12559,0.296686 m 2.35867,-2.738614 c -0.0981,0.12947 -0.2039,0.219075 -0.31785,0.269875 -0.11395,0.0508 -0.23707,0.08961 -0.36971,0.117828 -0.13265,0.02787 -0.27446,0.05433 -0.42581,0.08008 -0.15098,0.02575 -0.31256,0.07832 -0.48471,0.157691 -0.14887,0.06526 -0.27094,0.154164 -0.36619,0.266347 -0.0952,0.111478 -0.17321,0.236714 -0.23389,0.37465 -0.0603,0.137584 -0.10583,0.282575 -0.13617,0.43427 -0.0303,0.151694 -0.0497,0.299861 -0.0593,0.444853 h 0.0141 c 0.0512,-0.111831 0.1196,-0.211667 0.20567,-0.300214 0.0864,-0.08819 0.1838,-0.1651 0.29316,-0.230011 0.10936,-0.06526 0.22684,-0.115711 0.35243,-0.149931 0.12559,-0.03493 0.25576,-0.05256 0.39088,-0.05256 0.2233,0 0.42545,0.03704 0.60677,0.111831 0.18133,0.07444 0.33479,0.180269 0.46038,0.317147 0.12594,0.137231 0.22225,0.301625 0.28963,0.492125 0.0674,0.190853 0.10125,0.404636 0.10125,0.641703 0,0.218722 -0.0399,0.42545 -0.11854,0.621242 -0.0794,0.195086 -0.18944,0.366183 -0.33161,0.512586 -0.14182,0.146403 -0.3115,0.262819 -0.50906,0.348897 -0.19826,0.08608 -0.41522,0.129117 -0.65264,0.129117 -0.25576,0 -0.48612,-0.04551 -0.69073,-0.136525 -0.20462,-0.09066 -0.37889,-0.219781 -0.52317,-0.38735 -0.14394,-0.166864 -0.25471,-0.371475 -0.33126,-0.613481 -0.0769,-0.242006 -0.11536,-0.513644 -0.11536,-0.816328 0,-0.23248 0.0141,-0.475897 0.042,-0.729191 0.0282,-0.253295 0.084,-0.496359 0.16757,-0.728839 0.0836,-0.232481 0.20073,-0.443442 0.35207,-0.631825 0.15134,-0.188031 0.35243,-0.335492 0.6036,-0.442737 0.18168,-0.07902 0.34643,-0.131233 0.4953,-0.156986 0.14888,-0.02575 0.28258,-0.04904 0.40111,-0.06985 0.11889,-0.02081 0.22719,-0.05115 0.32456,-0.09066 0.0977,-0.03951 0.18591,-0.112889 0.26529,-0.21978" />
    <path
       inkscape:connector-curvature="0"
       id="path2226"
       style="fill:#141630;fill-opacity:1;fill-rule:nonzero;stroke:none;stroke-width:0.03527778"
       d="m 140.25785,68.34374 h 0.55811 v 3.139723 h -0.55811 z m -2.35832,1.465086 v 1.151114 h 0.40499 c 0.27905,0 0.4752,-0.04868 0.5895,-0.146402 0.11394,-0.09772 0.17074,-0.239536 0.17074,-0.42545 0,-0.190853 -0.0582,-0.334787 -0.17427,-0.432506 -0.11642,-0.09772 -0.30939,-0.146756 -0.57926,-0.146756 z m -0.55809,-1.465086 h 0.55809 v 0.941917 h 0.51647 c 0.24201,0 0.44168,0.03034 0.60008,0.09066 0.15804,0.06032 0.28469,0.140758 0.37994,0.240594 0.0956,0.100189 0.16298,0.215548 0.20285,0.34537 0.0392,0.130528 0.0593,0.265289 0.0593,0.404636 0,0.1397 -0.0226,0.275519 -0.0667,0.408164 -0.0441,0.132644 -0.11607,0.251178 -0.21626,0.355953 -0.0998,0.104775 -0.23353,0.189441 -0.4011,0.254705 -0.16722,0.06491 -0.3743,0.09772 -0.62089,0.09772 h -1.01177" />
    <path
       inkscape:connector-curvature="0"
       id="path2228"
       style="fill:#141630;fill-opacity:1;fill-rule:nonzero;stroke:none;stroke-width:0.03527778"
       d="m 144.50001,71.02979 c -0.13512,0.172156 -0.30939,0.302331 -0.52317,0.390525 -0.21414,0.08855 -0.44203,0.132645 -0.68404,0.132645 -0.25118,0 -0.47872,-0.0381 -0.68333,-0.115006 -0.20496,-0.07691 -0.3817,-0.187325 -0.53058,-0.331258 -0.14887,-0.144286 -0.26387,-0.3175 -0.34537,-0.519994 -0.0811,-0.202142 -0.12206,-0.426509 -0.12206,-0.673101 0,-0.227894 0.0395,-0.44203 0.11854,-0.642055 0.079,-0.199672 0.18979,-0.373239 0.33161,-0.519642 0.14146,-0.146755 0.30938,-0.262819 0.50235,-0.348897 0.19297,-0.08608 0.4057,-0.129117 0.63818,-0.129117 0.25118,0 0.48224,0.0314 0.69426,0.09419 0.21167,0.06279 0.39159,0.168628 0.54081,0.3175 l -0.25823,0.439561 c -0.13511,-0.121003 -0.27799,-0.205669 -0.42898,-0.254705 -0.15134,-0.04868 -0.30833,-0.07338 -0.47096,-0.07338 -0.13934,0 -0.27446,0.02716 -0.40463,0.08043 -0.13053,0.05362 -0.24554,0.129117 -0.34537,0.226836 -0.10019,0.09737 -0.17921,0.215195 -0.23742,0.352425 -0.0582,0.137231 -0.0871,0.289278 -0.0871,0.456847 0,0.172156 0.0303,0.326673 0.0907,0.463903 0.0607,0.137231 0.14181,0.254706 0.24412,0.352425 0.1023,0.09772 0.22225,0.172156 0.35948,0.223309 0.13723,0.05115 0.28257,0.07655 0.43603,0.07655 0.1905,0 0.3616,-0.03704 0.51259,-0.111477 0.15134,-0.07444 0.2801,-0.172156 0.38735,-0.293159" />
    <path
       inkscape:connector-curvature="0"
       id="path2230"
       style="fill:#141630;fill-opacity:1;fill-rule:nonzero;stroke:none;stroke-width:0.03527778"
       d="m 144.78611,68.34374 h 2.86032 v 0.558448 h -1.15111 v 2.581275 h -0.5581 v -2.581275 h -1.15111" />
    <path
       inkscape:connector-curvature="0"
       id="path2232"
       style="fill:#141630;fill-opacity:1;fill-rule:nonzero;stroke:none;stroke-width:0.03527778"
       d="m 149.71865,68.79706 c -0.18591,0 -0.35948,0.04198 -0.52,0.125941 -0.16051,0.08361 -0.28927,0.185914 -0.38699,0.306564 v 1.556103 c 0.13934,0.09278 0.27658,0.156986 0.41169,0.192264 0.13511,0.03457 0.27658,0.05221 0.42545,0.05221 0.16757,0 0.31856,-0.02893 0.45367,-0.08749 0.13476,-0.05786 0.24871,-0.136877 0.34184,-0.237419 0.0928,-0.09984 0.16475,-0.219428 0.21626,-0.359128 0.0508,-0.139347 0.0769,-0.293158 0.0769,-0.460728 0,-0.158044 -0.0226,-0.303389 -0.0667,-0.43568 -0.0441,-0.132292 -0.11042,-0.24765 -0.19862,-0.34537 -0.0882,-0.09772 -0.19544,-0.173214 -0.32067,-0.226836 -0.12594,-0.05362 -0.27023,-0.08043 -0.43286,-0.08043 m -1.46509,-0.453673 h 0.5581 v 0.370417 c 0.10689,-0.125941 0.25682,-0.230717 0.44979,-0.314325 0.19332,-0.08396 0.39899,-0.125236 0.61771,-0.125236 0.22331,0 0.42439,0.03951 0.60361,0.118181 0.17885,0.07937 0.3309,0.188383 0.45684,0.328436 0.12559,0.138994 0.22225,0.306564 0.28928,0.502003 0.0677,0.195086 0.10125,0.409575 0.10125,0.641702 0,0.237067 -0.0381,0.459317 -0.11501,0.66675 -0.0769,0.206375 -0.18732,0.385587 -0.33126,0.536575 -0.14428,0.151342 -0.31644,0.270228 -0.51646,0.355953 -0.20003,0.08643 -0.42298,0.129117 -0.66993,0.129117 -0.16721,0 -0.32879,-0.01693 -0.48471,-0.05221 -0.15593,-0.03457 -0.28963,-0.08961 -0.40111,-0.163689 v 1.541992 h -0.5581" />
    <path
       inkscape:connector-curvature="0"
       id="path2234"
       style="fill:#141630;fill-opacity:1;fill-rule:nonzero;stroke:none;stroke-width:0.03527778"
       d="m 155.04877,68.34374 h 0.5581 v 3.139723 h -0.5581 z m -2.35832,1.465086 v 1.151114 h 0.40464 c 0.27904,0 0.47554,-0.04868 0.58949,-0.146402 0.1143,-0.09772 0.17109,-0.239536 0.17109,-0.42545 0,-0.190853 -0.0582,-0.334787 -0.17427,-0.432506 -0.11641,-0.09772 -0.30938,-0.146756 -0.57926,-0.146756 z m -0.5581,-1.465086 h 0.5581 v 0.941917 h 0.51647 c 0.24165,0 0.44167,0.03034 0.60007,0.09066 0.15769,0.06032 0.28469,0.140758 0.37994,0.240594 0.0956,0.100189 0.16299,0.215548 0.2025,0.34537 0.0395,0.130528 0.0593,0.265289 0.0593,0.404636 0,0.1397 -0.0222,0.275519 -0.0663,0.408164 -0.0441,0.132644 -0.11606,0.251178 -0.21625,0.355953 -0.10019,0.104775 -0.23354,0.189441 -0.40111,0.254705 -0.16757,0.06491 -0.37465,0.09772 -0.62089,0.09772 h -1.01177" />
    <path
       inkscape:connector-curvature="0"
       id="path2236"
       style="fill:#141630;fill-opacity:1;fill-rule:nonzero;stroke:none;stroke-width:0.03527778"
       d="m 158.27916,69.857863 1.19309,1.6256 h -0.68368 l -0.92111,-1.27 -0.9345,1.27 h -0.64912 l 1.18604,-1.597731 -1.11619,-1.541992 h 0.68333 l 0.85161,1.186039 0.86501,-1.186039 h 0.64911" />
    <path
       inkscape:connector-curvature="0"
       id="path2238"
       style="fill:#141630;fill-opacity:1;fill-rule:nonzero;stroke:none;stroke-width:0.03527778"
       d="m 109.30901,75.363666 h -1.70921 v 2.616553 h -0.55845 v -3.139723 h 2.82575 v 3.139723 h -0.55809" />
    <path
       inkscape:connector-curvature="0"
       id="path2240"
       style="fill:#141630;fill-opacity:1;fill-rule:nonzero;stroke:none;stroke-width:0.03527778"
       d="m 113.02764,75.398591 h -1.10243 l -0.0349,0.530225 c -0.0374,0.446616 -0.0931,0.807155 -0.16722,1.081264 -0.0748,0.274814 -0.16545,0.486128 -0.27235,0.635 -0.10689,0.148872 -0.23036,0.249061 -0.37006,0.299861 -0.13935,0.05115 -0.29069,0.0769 -0.45332,0.0769 l -0.0416,-0.543983 c 0.0603,0.0046 0.12983,-0.01058 0.2092,-0.04551 0.0794,-0.03493 0.15558,-0.111831 0.23001,-0.230364 0.0748,-0.118534 0.14217,-0.28822 0.2025,-0.509411 0.0607,-0.220839 0.10019,-0.512586 0.11853,-0.875242 l 0.0561,-0.977195 h 2.1837 v 3.139723 h -0.5581" />
    <path
       inkscape:connector-curvature="0"
       id="path2242"
       style="fill:#141630;fill-opacity:1;fill-rule:nonzero;stroke:none;stroke-width:0.03527778"
       d="m 115.52566,77.526546 c 0.20426,0 0.37042,-0.0441 0.49848,-0.132291 0.1277,-0.08855 0.23107,-0.179211 0.31044,-0.272345 v -0.39758 c -0.19544,-0.1397 -0.43039,-0.20955 -0.7045,-0.20955 -0.0836,0 -0.16616,0.01058 -0.24729,0.03175 -0.0819,0.02081 -0.15382,0.05221 -0.21696,0.09384 -0.0621,0.04198 -0.11254,0.0956 -0.14993,0.160513 -0.037,0.06526 -0.0561,0.14217 -0.0561,0.230364 0,0.148873 0.0494,0.268464 0.1471,0.359128 0.0974,0.09102 0.23672,0.136172 0.41875,0.136172 M 114.6116,75.05675 c 0.13935,-0.08819 0.29881,-0.158044 0.48013,-0.209197 0.18027,-0.05115 0.36795,-0.07691 0.56268,-0.07691 0.44521,0 0.75707,0.111478 0.93592,0.335139 0.17816,0.223308 0.26776,0.539397 0.26776,0.94862 v 1.925814 h -0.52352 V 77.57558 c -0.0931,0.12065 -0.21872,0.226483 -0.37677,0.3175 -0.15804,0.09031 -0.36724,0.135819 -0.62794,0.135819 -0.28787,0 -0.52035,-0.08467 -0.69744,-0.254706 -0.1771,-0.169686 -0.26529,-0.408164 -0.26529,-0.71508 0,-0.158045 0.0303,-0.299861 0.0907,-0.42545 0.0607,-0.125589 0.14323,-0.230364 0.24765,-0.313972 0.10478,-0.08396 0.23072,-0.147814 0.37677,-0.191912 0.14675,-0.0441 0.30374,-0.06632 0.47131,-0.06632 0.12065,0 0.25435,0.01411 0.40076,0.04198 0.14675,0.02787 0.27305,0.08114 0.38029,0.160161 0,-0.143933 -0.008,-0.277636 -0.024,-0.401108 -0.0162,-0.12312 -0.049,-0.227542 -0.0981,-0.31362 -0.0487,-0.08643 -0.121,-0.153811 -0.21625,-0.202494 -0.0956,-0.04904 -0.21978,-0.07338 -0.3736,-0.07338 -0.19508,0 -0.35665,0.02222 -0.48436,0.06632 -0.12841,0.0441 -0.2547,0.09878 -0.38065,0.164042" />
    <path
       inkscape:connector-curvature="0"
       id="path2244"
       style="fill:#141630;fill-opacity:1;fill-rule:nonzero;stroke:none;stroke-width:0.03527778"
       d="m 117.40244,74.840496 h 2.86032 v 0.558447 h -1.15111 v 2.581276 h -0.5581 v -2.581276 h -1.15111" />
    <path
       inkscape:connector-curvature="0"
       id="path2246"
       style="fill:#141630;fill-opacity:1;fill-rule:nonzero;stroke:none;stroke-width:0.03527778"
       d="m 122.14624,75.293816 c -0.28822,0 -0.51893,0.07937 -0.69074,0.237419 -0.17215,0.158045 -0.27446,0.358422 -0.30691,0.600428 h 1.90464 c -0.0141,-0.261056 -0.10019,-0.465667 -0.25823,-0.614186 -0.15804,-0.148872 -0.37465,-0.223661 -0.64876,-0.223661 m 1.27,2.344561 c -0.15381,0.139347 -0.33655,0.242711 -0.54786,0.310092 -0.21202,0.06738 -0.42192,0.101247 -0.63147,0.101247 -0.25577,0 -0.48719,-0.03845 -0.69427,-0.114653 -0.20708,-0.0769 -0.38382,-0.187678 -0.53023,-0.331964 -0.1464,-0.14358 -0.25929,-0.3175 -0.33831,-0.519642 -0.079,-0.202141 -0.11853,-0.426508 -0.11853,-0.672747 0,-0.228247 0.036,-0.442383 0.10795,-0.642055 0.0723,-0.200378 0.17674,-0.373592 0.31397,-0.519642 0.13723,-0.146756 0.30586,-0.26282 0.50588,-0.348897 0.20003,-0.08643 0.43039,-0.129117 0.69074,-0.129117 0.20003,0 0.38982,0.03457 0.56833,0.104422 0.17921,0.06985 0.33408,0.16757 0.46425,0.292806 0.13018,0.125589 0.23389,0.277283 0.31045,0.453672 0.0769,0.177095 0.11535,0.371828 0.11535,0.585964 0,0.144286 -0.0116,0.269522 -0.0353,0.376767 h -2.41371 c 0.0233,0.297744 0.13476,0.529166 0.33479,0.694266 0.20002,0.165453 0.45367,0.248003 0.76059,0.248003 0.20461,0 0.39052,-0.0314 0.55809,-0.09454 0.16757,-0.06279 0.30198,-0.140406 0.40428,-0.233539" />
    <path
       inkscape:connector-curvature="0"
       id="path2248"
       style="fill:#141630;fill-opacity:1;fill-rule:nonzero;stroke:none;stroke-width:0.03527778"
       d="m 127.14898,76.354619 1.22767,1.6256 h -0.69074 l -1.16487,-1.6256 1.08126,-1.514123 h 0.69074 z m -1.32574,-1.514123 h 0.55797 v 3.139723 h -0.55797 z m -1.9184,0 h 0.7045 l 1.07456,1.514123 -1.15147,1.6256 h -0.68333 l 1.2065,-1.6256" />
    <path
       inkscape:connector-curvature="0"
       id="path2250"
       style="fill:#141630;fill-opacity:1;fill-rule:nonzero;stroke:none;stroke-width:0.03527778"
       d="m 130.19769,75.293816 c -0.28822,0 -0.51894,0.07937 -0.69074,0.237419 -0.17215,0.158045 -0.27446,0.358422 -0.30692,0.600428 h 1.90465 c -0.0141,-0.261056 -0.10019,-0.465667 -0.25823,-0.614186 -0.15805,-0.148872 -0.37465,-0.223661 -0.64876,-0.223661 m 1.27,2.344561 c -0.15381,0.139347 -0.33655,0.242711 -0.54786,0.310092 -0.21202,0.06738 -0.42193,0.101247 -0.63148,0.101247 -0.25576,0 -0.48718,-0.03845 -0.69426,-0.114653 -0.20708,-0.0769 -0.38383,-0.187678 -0.53023,-0.331964 -0.1464,-0.14358 -0.25929,-0.3175 -0.33831,-0.519642 -0.079,-0.202141 -0.11854,-0.426508 -0.11854,-0.672747 0,-0.228247 0.036,-0.442383 0.10795,-0.642055 0.0723,-0.200378 0.17675,-0.373592 0.31398,-0.519642 0.13723,-0.146756 0.30586,-0.26282 0.50588,-0.348897 0.20003,-0.08643 0.43039,-0.129117 0.69074,-0.129117 0.20002,0 0.38982,0.03457 0.56832,0.104422 0.17922,0.06985 0.33408,0.16757 0.46426,0.292806 0.13017,0.125589 0.23389,0.277283 0.31044,0.453672 0.0769,0.177095 0.11536,0.371828 0.11536,0.585964 0,0.144286 -0.0116,0.269522 -0.0353,0.376767 h -2.4137 c 0.0233,0.297744 0.13476,0.529166 0.33479,0.694266 0.20002,0.165453 0.45367,0.248003 0.76058,0.248003 0.20462,0 0.39053,-0.0314 0.5581,-0.09454 0.16757,-0.06279 0.30198,-0.140406 0.40428,-0.233539" />
    <path
       inkscape:connector-curvature="0"
       id="path2252"
       style="fill:#141630;fill-opacity:1;fill-rule:nonzero;stroke:none;stroke-width:0.03527778"
       d="m 133.41361,73.23571 c 0.0282,0.367947 0.20708,0.551039 0.53728,0.551039 0.31186,0 0.4819,-0.183092 0.50941,-0.551039 h 0.52317 c 0,0.1397 -0.024,0.268464 -0.0734,0.38735 -0.0483,0.118533 -0.11819,0.221192 -0.2092,0.306917 -0.0907,0.08608 -0.19897,0.154869 -0.3242,0.206022 -0.12595,0.0508 -0.26776,0.07655 -0.42581,0.07655 -0.17215,0 -0.32385,-0.02575 -0.45684,-0.07655 -0.1323,-0.05115 -0.24307,-0.119944 -0.33126,-0.206022 -0.0889,-0.08572 -0.15558,-0.188384 -0.2025,-0.306917 -0.0466,-0.118886 -0.0698,-0.24765 -0.0698,-0.38735 z m -0.96978,4.744156 v -3.139723 h 0.55809 v 2.337859 l 1.81434,-2.337859 h 0.55809 v 3.139723 h -0.55809 v -2.337153 l -1.81434,2.337153" />
  </g>
</svg>
